<?xml version="1.0" encoding="UTF-8"?>
<svg version="1.1" xmlns="http://www.w3.org/2000/svg" width="521" height="436">
<path d="M0 0 C171.93 0 343.86 0 521 0 C521 143.88 521 287.76 521 436 C349.07 436 177.14 436 0 436 C0 292.12 0 148.24 0 0 Z " fill="#111111" transform="translate(0,0)"/>
<path d="M0 0 C19.47 0 38.94 0 59 0 C59 33.66 59 67.32 59 102 C59.66 102 60.32 102 61 102 C61.25136719 101.28199219 61.50273437 100.56398438 61.76171875 99.82421875 C63.11397662 96.74004701 64.74560608 94.46993504 66.8125 91.8125 C67.62789754 90.74992033 68.44159428 89.68603411 69.25390625 88.62109375 C69.91543701 87.75460205 69.91543701 87.75460205 70.59033203 86.87060547 C73.19730427 83.41119756 75.72011479 79.89095773 78.25 76.375 C78.80155762 75.60961914 79.35311523 74.84423828 79.92138672 74.05566406 C81.61515961 71.70442377 83.30772388 69.35231775 85 67 C87.14448877 64.01986236 89.29013978 61.04056934 91.4375 58.0625 C91.97012451 57.32378662 92.50274902 56.58507324 93.05151367 55.82397461 C97.59802885 49.53084496 102.21184282 43.28862254 106.83081055 37.04858398 C111.16929934 31.17018267 115.41194872 25.2302546 119.56665039 19.22045898 C120.45457962 17.94611762 121.37234753 16.69209345 122.31745911 15.45956421 C124.12737503 12.96536945 124.12737503 12.96536945 125.4647522 9.77897644 C127.77888302 5.56388757 129.80565443 2.46731797 134 0 C142.74460671 -2.32020889 152.17353927 -1.55736737 161.15293884 -1.31664276 C164.38490464 -1.24209088 167.61664314 -1.23909563 170.84936523 -1.2298584 C180.27535847 -1.16189403 189.70025708 -0.98039488 199.125 -0.8125 C220.20375 -0.544375 241.2825 -0.27625 263 0 C263 58.08 263 116.16 263 176 C229.01 176 195.02 176 160 176 C159.34 177.32 158.68 178.64 158 180 C156.44256707 182.27452435 154.86615625 184.51823623 153.25 186.75 C152.80333984 187.37253662 152.35667969 187.99507324 151.89648438 188.63647461 C149.48411446 191.98839453 147.0248022 195.29400606 144.5 198.5625 C142.43500619 201.27352539 141.20985384 203.80252912 140 207 C136.57142857 211.71428571 136.57142857 211.71428571 134 213 C133.58041016 214.08667969 133.58041016 214.08667969 133.15234375 215.1953125 C131.75622503 218.59332348 129.84883839 220.99970084 127.5625 223.875 C126.65731354 225.02613395 125.75372832 226.17852844 124.8515625 227.33203125 C124.38266602 227.93096191 123.91376953 228.52989258 123.43066406 229.14697266 C120.61068647 232.79946923 117.90857372 236.53879764 115.19555664 240.27099609 C114.3508209 241.43097564 113.49380245 242.5821045 112.62507629 243.72422791 C110.90241368 246.06701793 110.90241368 246.06701793 109.24478149 248.9740448 C103.9024895 257.36380413 103.9024895 257.36380413 98.83906555 259.05702209 C95.097789 259.38708378 91.52878212 259.35228973 87.77734375 259.171875 C86.42264889 259.14944758 85.06785561 259.13238766 83.71302795 259.12042236 C80.17411881 259.07494477 76.64127402 258.95743642 73.10473633 258.82397461 C69.48537256 258.70043431 65.86501216 258.64624962 62.24414062 258.5859375 C55.16030279 258.45785926 48.08055042 258.25352183 41 258 C47.28069936 248.5048601 47.28069936 248.5048601 50.2265625 244.5625 C50.77747559 243.82128906 51.32838867 243.08007812 51.89599609 242.31640625 C52.46656738 241.55199219 53.03713867 240.78757812 53.625 240 C58.79824609 233.02706463 63.87211309 225.99497479 68.85717773 218.88647461 C72.36952159 213.87984674 75.94441036 208.92631722 79.57421875 204.00390625 C81.03274389 202.06296098 81.03274389 202.06296098 82 200 C82.66 200 83.32 200 84 200 C84.21914062 199.32453125 84.43828125 198.6490625 84.6640625 197.953125 C86.40273928 194.10973421 88.79697526 191.06908959 91.375 187.75 C96.1958242 181.43637411 100.85415766 175.03563609 105.40527344 168.52539062 C108.09127052 164.68925839 110.80670044 160.87944464 113.57421875 157.1015625 C114.16662354 156.29122559 114.75902832 155.48088867 115.36938477 154.64599609 C116.51259515 153.08578657 117.66001364 151.52864895 118.81225586 149.97509766 C121.44698819 146.37338211 123.38643304 143.17467536 125 139 C126.4672299 136.87857401 127.99238196 134.79644598 129.5625 132.75 C129.97435547 132.20859375 130.38621094 131.6671875 130.81054688 131.109375 C133.78447421 127.21552579 133.78447421 127.21552579 135 126 C137.46444057 125.90499452 139.90074626 125.87442015 142.36547852 125.88647461 C143.13615662 125.88632858 143.90683472 125.88618256 144.7008667 125.8860321 C147.26024139 125.8867314 149.8195442 125.89452455 152.37890625 125.90234375 C154.14867615 125.90420787 155.91844656 125.9056318 157.68821716 125.90663147 C162.35551366 125.91045712 167.02277923 125.9202878 171.69006348 125.93133545 C177.285076 125.94334293 182.88009884 125.94795159 188.47512054 125.95378876 C196.98343523 125.96349953 205.49168202 125.98265575 214 126 C214 100.92 214 75.84 214 50 C205.29625 49.896875 196.5925 49.79375 187.625 49.6875 C183.53279053 49.58828247 183.53279053 49.58828247 179.35791016 49.48706055 C166.99038738 48.86629992 166.99038738 48.86629992 156.20898438 53.75 C153.53338206 56.8553736 151.79394243 60.32218342 150 64 C148.49201242 66.27227112 146.87798199 68.43420778 145.25 70.625 C144.41717825 71.79891876 143.58497294 72.97327561 142.75390625 74.1484375 C139.61883673 78.55529139 136.40318482 82.90180233 133.1875 87.25 C127.92941667 94.36126591 122.72623132 101.50920054 117.56787109 108.69311523 C115.16694886 112.02963081 112.75243579 115.34994166 110.2578125 118.6171875 C109.84120361 119.16318604 109.42459473 119.70918457 108.99536133 120.27172852 C107.9049599 121.69206358 106.80636679 123.10609984 105.70703125 124.51953125 C103.90837527 126.93002136 103.90837527 126.93002136 102.94921875 129.69921875 C102 132 102 132 99 134 C98.32558869 135.6635479 97.6599679 137.33066942 97 139 C95.06527815 141.73529641 93.39654237 143.72868154 90.625 145.625 C88.01248237 147.98870643 87.07029197 149.54083374 85.5 152.625 C82.64164303 158.14868203 79.22005904 163.09897356 75.5625 168.125 C74.75619141 169.23415771 74.75619141 169.23415771 73.93359375 170.36572266 C70.0509268 175.6586699 66.03286508 180.81488776 62 186 C41.54 186 21.08 186 0 186 C0 124.62 0 63.24 0 0 Z " fill="#737373" transform="translate(145,105)"/>
<path d="M0 0 C19.47 0 38.94 0 59 0 C59 33.66 59 67.32 59 102 C59.66 102 60.32 102 61 102 C61.25136719 101.28199219 61.50273437 100.56398438 61.76171875 99.82421875 C63.11397662 96.74004701 64.74560608 94.46993504 66.8125 91.8125 C67.62789754 90.74992033 68.44159428 89.68603411 69.25390625 88.62109375 C69.91543701 87.75460205 69.91543701 87.75460205 70.59033203 86.87060547 C73.19730427 83.41119756 75.72011479 79.89095773 78.25 76.375 C78.80155762 75.60961914 79.35311523 74.84423828 79.92138672 74.05566406 C81.61515961 71.70442377 83.30772388 69.35231775 85 67 C87.14448877 64.01986236 89.29013978 61.04056934 91.4375 58.0625 C91.97012451 57.32378662 92.50274902 56.58507324 93.05151367 55.82397461 C97.01784191 50.33391973 101.03356322 44.8817101 105.0625 39.4375 C110.02235187 32.7347751 114.89400573 25.97849004 119.65454102 19.13256836 C120.53547476 17.87107382 121.4307779 16.61947908 122.34089661 15.37887573 C124.08673456 12.94239627 124.08673456 12.94239627 125.75515747 10.00382996 C131.07406747 1.63574998 131.07406747 1.63574998 136.19944763 -0.05613708 C140.00012847 -0.38731209 143.63060694 -0.35208373 147.44140625 -0.171875 C148.81852262 -0.1494486 150.1957358 -0.1323882 151.57298279 -0.12042236 C155.17102809 -0.07493766 158.76311204 0.04257994 162.35882568 0.17602539 C166.03852672 0.29954838 169.7192071 0.35374691 173.40039062 0.4140625 C180.6029576 0.54215898 187.8006389 0.74649159 195 1 C190.32014668 10.62639418 183.15731295 19.19305769 176.72290039 27.70849609 C170.6850466 35.71156748 164.84807239 43.85781732 159 52 C152.2565323 61.38882803 145.47807417 70.74062865 138.51489258 79.96801758 C134.27096055 85.605521 130.13735215 91.31841437 126.01806641 97.04736328 C111.53356445 117.17269439 111.53356445 117.17269439 105.38134766 125.08056641 C103.86684002 127.0116823 103.86684002 127.0116823 103 129.625 C102 132 102 132 99 134 C98.32558869 135.6635479 97.6599679 137.33066942 97 139 C95.06527815 141.73529641 93.39654237 143.72868154 90.625 145.625 C88.01248237 147.98870643 87.07029197 149.54083374 85.5 152.625 C82.64164303 158.14868203 79.22005904 163.09897356 75.5625 168.125 C74.75619141 169.23415771 74.75619141 169.23415771 73.93359375 170.36572266 C70.0509268 175.6586699 66.03286508 180.81488776 62 186 C41.54 186 21.08 186 0 186 C0 124.62 0 63.24 0 0 Z " fill="#969696" transform="translate(145,105)"/>
<path d="M0 0 C19.47 0 38.94 0 59 0 C59 33.66 59 67.32 59 102 C59.99 102.495 59.99 102.495 61 103 C60.01 103.33 59.02 103.66 58 104 C57.32751364 105.66432698 56.66237698 107.33162386 56 109 C54.35308209 111.46924832 52.51258611 113.78561645 50.6875 116.125 C45.41244584 123.00736663 40.45380479 130.05928582 35.62963867 137.26416016 C32.50098781 141.90977821 29.20528985 146.35464597 25.73803711 150.75268555 C22.92497964 154.39002141 20.31056133 158.16203369 17.6875 161.9375 C16.65156609 163.42705319 15.61388569 164.91539372 14.57421875 166.40234375 C14.12651123 167.04679443 13.67880371 167.69124512 13.2175293 168.35522461 C12 170 12 170 10 172 C9.71125 172.7425 9.4225 173.485 9.125 174.25 C7.80233676 177.4831768 5.96468245 180.12058686 4 183 C18.87341641 183.61563238 33.73833681 184.10929321 48.625 184.1875 C49.82092773 184.20039063 51.01685547 184.21328125 52.24902344 184.2265625 C53.35536133 184.22785156 54.46169922 184.22914063 55.6015625 184.23046875 C56.57432129 184.23457764 57.54708008 184.23868652 58.54931641 184.24291992 C61.25648045 184.16840089 61.25648045 184.16840089 64 182 C63.34 183.32 62.68 184.64 62 186 C41.54 186 21.08 186 0 186 C0 124.62 0 63.24 0 0 Z " fill="#737373" transform="translate(145,105)"/>
<path d="M0 0 C0.33 0 0.66 0 1 0 C1 33.66 1 67.32 1 102 C1.99 102.495 1.99 102.495 3 103 C2.01 103.33 1.02 103.66 0 104 C-0.67248636 105.66432698 -1.33762302 107.33162386 -2 109 C-3.64691791 111.46924832 -5.48741389 113.78561645 -7.3125 116.125 C-12.58755416 123.00736663 -17.54619521 130.05928582 -22.37036133 137.26416016 C-25.50307723 141.91581423 -28.80346719 146.36642294 -32.27514648 150.77026367 C-35.56110082 155.01805149 -38.57880166 159.45610007 -41.63671875 163.86914062 C-44.58366124 168.08950082 -47.64348361 172.09635915 -51 176 C-51.66 175.34 -52.32 174.68 -53 174 C-52.53327881 172.99138916 -52.06655762 171.98277832 -51.58569336 170.94360352 C-49.3682787 166.15052614 -47.15251907 161.35668488 -44.9375 156.5625 C-44.5348291 155.69096283 -44.1321582 154.81942566 -43.71728516 153.92147827 C-37.29118649 140.00799811 -30.91694736 126.07181341 -24.59741211 112.10961914 C-24.30027817 111.45374817 -24.00314423 110.7978772 -23.69700623 110.12213135 C-22.90337641 108.36992661 -22.11082406 106.61723395 -21.31835938 104.86450195 C-20.25377098 102.55138794 -19.15792159 100.26736724 -18 98 C-17.34 98 -16.68 98 -16 98 C-15.72220703 97.1244043 -15.44441406 96.24880859 -15.15820312 95.34667969 C-13.34966271 90.12082133 -10.89354511 85.22882121 -8.5 80.25 C-8.00113281 79.19683594 -7.50226563 78.14367187 -6.98828125 77.05859375 C-6.26705078 75.55232422 -6.26705078 75.55232422 -5.53125 74.015625 C-5.09361328 73.10071289 -4.65597656 72.18580078 -4.20507812 71.24316406 C-3 69 -3 69 -1 67 C-0.66715709 64.08625621 -0.66715709 64.08625621 -0.68115234 60.62255859 C-0.66608391 59.64188667 -0.66608391 59.64188667 -0.65071106 58.6414032 C-0.61978211 56.47709038 -0.60281746 54.31290177 -0.5859375 52.1484375 C-0.5672336 50.64912846 -0.54766078 49.14983002 -0.5272522 47.65054321 C-0.47584247 43.70176438 -0.43626432 39.75295137 -0.39910889 35.80401611 C-0.35912444 31.77550749 -0.30800683 27.74714206 -0.2578125 23.71875 C-0.16094864 15.81259767 -0.0765776 7.90637471 0 0 Z " fill="#4F4F4F" transform="translate(203,105)"/>
<path d="M0 0 C0.33 0 0.66 0 1 0 C1.56487997 3.61523178 0.82639012 5.52461641 -1.15625 8.4375 C-4.55860847 13.71221227 -7.15244268 19.32473752 -9.8125 25 C-10.56563477 26.59134766 -10.56563477 26.59134766 -11.33398438 28.21484375 C-12.56040683 30.80785122 -13.78228707 33.40289407 -15 36 C-16.23128628 32.30614117 -15.31475962 31.01116987 -13.67384338 27.6287384 C-13.31870163 26.92238754 -12.96355988 26.21603668 -12.59765625 25.48828125 C-12.06282875 24.39594429 -12.06282875 24.39594429 -11.51719666 23.28153992 C-10.37486521 20.95384705 -9.21890599 18.63322764 -8.0625 16.3125 C-7.28620313 14.73677427 -6.51080099 13.1606074 -5.73632812 11.58398438 C-3.83456784 7.7174586 -1.92055705 3.85722138 0 0 Z " fill="#616161" transform="translate(202,167)"/>
<path d="M0 0 C0 3.66184524 -0.919642 5.02806 -3 8 C-5.1875 9.8125 -5.1875 9.8125 -7 11 C-5.07469586 7.00129139 -3.15703281 3.15703281 0 0 Z " fill="#505050" transform="translate(236,249)"/>
</svg>
